<?xml version="1.0" encoding="UTF-8"?>
<svg id="Layer_2" data-name="Layer 2" xmlns="http://www.w3.org/2000/svg" viewBox="0 0 430.93 349.84">
  <defs>
    <style>
      .cls-1 {
        fill: #fff;
      }
    </style>
  </defs>
  <g id="Layer_2-2" data-name="Layer 2">
    <g>
      <path class="cls-1" d="m215.85,309.25c3.47-32.92,16.25-137.35,37.54-162.34,1.06-1.24,3.09-.48,3.08,1.15-.07,11.51,2.07,44.74,26.24,80.4,2.32,3.42,2.14,7.94-.43,11.18-10.43,13.17-37.09,49.94-59.73,107.26-1.54,3.91.75,3.84,3.04.31,16.25-25,52.03-62.23,77.47-77.35,37.29-22.17,67.08-72.17,71.59-91.79.34-1.5-.79-2.93-2.33-2.91l-14.87.11c-.82,0-1.58.43-2.01,1.13-2.38,3.92-11.17,16.7-23.79,15.31-16.48-1.82-28.81-8.82-35.48-23.49-6.8-14.97-9.71-35.42-4.16-54.67,5-17.33,33.12-49.39,55.83-45.83,29.59,4.63,23.87,48.41,4.66,43.67,0,0-15.17-1.67-2.33-16.46,8.08-9.31-6.03-10.61-8.26-5.82s-6.74,10.03-1.9,19.12c12.22,23,54.83,2,38.67-34.33-22.18-49.87-85-11.29-85-11.29,0,0-67.85,37.65-78.21,134.75-10.36-97.1-77.93-134.75-77.93-134.75,0,0-62.82-38.58-85,11.29-16.16,36.33,26.44,57.33,38.67,34.33,4.83-9.09.33-14.33-1.9-19.12s-16.34-3.49-8.26,5.82c12.84,14.8-2.33,16.46-2.33,16.46-19.21,4.74-24.92-39.03,4.66-43.67,22.71-3.56,50.83,28.5,55.83,45.83,5.55,19.24,2.64,39.7-4.16,54.67-6.67,14.67-19,21.67-35.48,23.49-12.62,1.4-21.41-11.39-23.79-15.31-.43-.7-1.19-1.12-2.01-1.13l-14.87-.11c-1.54-.01-2.68,1.41-2.33,2.91,4.51,19.62,34.3,69.62,71.59,91.79,25.44,15.13,61.22,52.35,77.47,77.35,2.29,3.52,4.59,3.6,3.04-.31-22.64-57.32-49.31-94.09-59.73-107.26-2.56-3.24-2.74-7.76-.43-11.18,24.17-35.66,26.31-68.89,26.24-80.4-.01-1.63,2.02-2.39,3.08-1.15,21.29,24.99,33.81,129.41,37.28,162.34h.74Z"/>
      <path class="cls-1" d="m215.47,130.21s27.56-116.78,121.57-107.42c86.38,8.61,78.93,86.03,55.78,103.3-26.22,19.55-74.66,6.67-64.88-28.75,0,0-16.67,24.09.41,41.6,20.55,21.07,73.33,13.8,92.69-19.74,56.81-117.92-146.86-189.23-205.56-14.1C156.71-70.07-46.91,1.35,9.9,119.21c19.36,33.54,72.15,40.81,92.7,19.74,17.08-17.52.41-41.6.41-41.6,9.78,35.42-38.66,48.31-64.88,28.75C14.97,108.83,7.52,31.4,93.9,22.79c94-9.37,121.57,107.42,121.57,107.42h0Z"/>
    </g>
  </g>
</svg>